<svg width="100" height="100" xmlns="http://www.w3.org/2000/svg" xmlns:xlink="http://www.w3.org/1999/xlink" overflow="hidden"><defs><clipPath id="clip0"><rect x="0" y="0" width="100" height="100"/></clipPath></defs><g clip-path="url(#clip0)"><rect x="0" y="0" width="100" height="100" fill="#FFFFFF"/><rect x="0" y="0" width="100" height="100" fill="#002060"/><path d="M49.0322 79.9877C28.0522 79.4532 11.4778 62.0122 12.0123 41.0322 12.5469 20.0522 29.9878 3.47785 50.9678 4.01235 68.9644 4.47085 84.1696 17.4944 87.3879 35.2068L81.8186 36.2187C78.6257 18.6458 61.7917 6.98855 44.2188 10.1815 26.6459 13.3744 14.9886 30.2084 18.1815 47.7812 20.9204 62.8552 33.8607 73.9388 49.1764 74.329Z" fill="#FFFFFF" fill-rule="evenodd"/><path d="M23.0252 43.1667C22.3809 28.2689 33.9356 15.6696 48.8333 15.0252 54.8219 14.7662 60.7264 16.5074 65.6162 19.9743L62.0938 24.9424C52.6732 18.2632 39.6216 20.4855 32.9424 29.9062 30.2575 33.6931 28.9091 38.2657 29.1096 42.9035Z" fill="#FFFFFF" fill-rule="evenodd"/><text fill="#FFFFFF" font-family="Malgun Gothic,Malgun Gothic_MSFontService,sans-serif" font-weight="700" font-size="16" transform="translate(37.5998 66)">DLTutor</text><text fill="#FFFFFF" font-family="Malgun Gothic,Malgun Gothic_MSFontService,sans-serif" font-weight="700" font-size="7" transform="translate(6.66667 90)">이세계</text><text fill="#FFFFFF" font-family="Malgun Gothic,Malgun Gothic_MSFontService,sans-serif" font-weight="700" font-size="7" transform="translate(31.6667 90)">최강자와</text><text fill="#FFFFFF" font-family="Malgun Gothic,Malgun Gothic_MSFontService,sans-serif" font-weight="700" font-size="7" transform="translate(64 90)">함께하는</text><text fill="#FFFFFF" font-family="Malgun Gothic,Malgun Gothic_MSFontService,sans-serif" font-weight="700" font-size="7" transform="translate(6.66667 98)">딥러닝</text><text fill="#FFFFFF" font-family="Malgun Gothic,Malgun Gothic_MSFontService,sans-serif" font-weight="700" font-size="7" transform="translate(31.6667 98)">라이브러리</text><text fill="#FFFFFF" font-family="Malgun Gothic,Malgun Gothic_MSFontService,sans-serif" font-weight="700" font-size="7" transform="translate(71.3333 98)">만들기</text></g></svg>