<svg width="100" height="100" xmlns="http://www.w3.org/2000/svg" xmlns:xlink="http://www.w3.org/1999/xlink" overflow="hidden"><defs><clipPath id="clip0"><rect x="0" y="0" width="100" height="100"/></clipPath></defs><g clip-path="url(#clip0)"><rect x="0" y="0" width="100" height="100" fill="#FFFFFF"/><rect x="0" y="0" width="100" height="100" fill="#002060"/><path d="M49.0322 87.9877C28.0522 87.4532 11.4778 70.0122 12.0123 49.0322 12.5469 28.0522 29.9878 11.4778 50.9678 12.0124 68.9644 12.4708 84.1696 25.4944 87.3879 43.2068L81.8186 44.2187C78.6257 26.6458 61.7917 14.9885 44.2188 18.1815 26.6459 21.3744 14.9886 38.2084 18.1815 55.7812 20.9204 70.8552 33.8607 81.9388 49.1764 82.329Z" fill="#FFFFFF" fill-rule="evenodd"/><path d="M23.0252 51.1667C22.3809 36.2689 33.9356 23.6696 48.8333 23.0252 54.8219 22.7662 60.7264 24.5074 65.6162 27.9743L62.0938 32.9424C52.6732 26.2632 39.6216 28.4855 32.9424 37.9062 30.2575 41.6931 28.9091 46.2657 29.1096 50.9035Z" fill="#FFFFFF" fill-rule="evenodd"/><text fill="#FFFFFF" font-family="AppleSDGothicNeoB00,AppleSDGothicNeoB00_MSFontService,sans-serif" font-weight="400" font-size="16" transform="translate(37.5999 72)">DLTutor</text><text fill="#FFFFFF" font-family="AppleSDGothicNeoB00,AppleSDGothicNeoB00_MSFontService,sans-serif" font-weight="400" font-size="5" transform="translate(2.47496 98)">이세계</text><text fill="#FFFFFF" font-family="AppleSDGothicNeoB00,AppleSDGothicNeoB00_MSFontService,sans-serif" font-weight="400" font-size="5" transform="translate(15.1416 98)">최강자와</text><text fill="#FFFFFF" font-family="AppleSDGothicNeoB00,AppleSDGothicNeoB00_MSFontService,sans-serif" font-weight="400" font-size="5" transform="translate(31.8083 98)">함께하는</text><text fill="#FFFFFF" font-family="AppleSDGothicNeoB00,AppleSDGothicNeoB00_MSFontService,sans-serif" font-weight="400" font-size="5" transform="translate(48.475 98)">딥러닝</text><text fill="#FFFFFF" font-family="AppleSDGothicNeoB00,AppleSDGothicNeoB00_MSFontService,sans-serif" font-weight="400" font-size="5" transform="translate(61.1416 98)">라이브러리</text><text fill="#FFFFFF" font-family="AppleSDGothicNeoB00,AppleSDGothicNeoB00_MSFontService,sans-serif" font-weight="400" font-size="5" transform="translate(81.8083 98)">만들기</text></g></svg>